<svg aria-hidden="true" style="width:0;height:0;position:absolute;overflow:hidden" xmlns="http://www.w3.org/2000/svg"><defs><symbol id="icon-menu" viewBox="0 0 24 24"><path d="M3 13h18a1 1 0 0 0 0-2H3a1 1 0 0 0 0 2zm0-6h18a1 1 0 0 0 0-2H3a1 1 0 0 0 0 2zm0 12h18a1 1 0 0 0 0-2H3a1 1 0 0 0 0 2z"/></symbol><symbol id="icon-close" viewBox="0 0 20 20"><path d="M10 8.586 2.929 1.515 1.515 2.929 8.586 10l-7.071 7.071 1.414 1.414L10 11.414l7.071 7.071 1.414-1.414L11.414 10l7.071-7.071-1.414-1.414L10 8.586z"/></symbol><symbol id="icon-menu1" viewBox="0 0 20 20"><path d="M0 3h20v2H0V3zm0 6h20v2H0V9zm0 6h20v2H0v-2z"/></symbol><symbol id="icon-close-btn" viewBox="0 0 32 32"><path d="m26.667 7.303-1.97-1.97-7.808 7.808-7.808-7.808-1.97 1.97 7.808 7.808-7.808 7.808 1.97 1.97 7.808-7.808 7.808 7.808 1.97-1.97-7.808-7.808 7.808-7.808z"/></symbol><symbol id="icon-close1" viewBox="0 0 32 32"><path stroke-width="2.133" d="m8.533 8.533 14.933 14.933m-14.933.001L23.466 8.534"/></symbol></defs></svg>